Coordinates
version=1
nRows=27
nColumns=12
inDegrees=yes

Units are S.I. units (second, meters, Newtons, ...)
Angles are in degrees

endheader
time	SC_y	SC_z	SC_x	AC_y	AC_z	AC_x	GH_y	GH_z	GH_yy	EL_x	PS_y
       0.0              -30.48          30.49          59.81          44.98         -9.242          10.55          -36.5          59.07          104.1          132.4          39.75
   0.03123              -30.48          30.49          59.81          44.98         -9.239          10.55         -36.52          59.07          104.1          132.4          39.75
   0.06247              -30.48          30.48          59.81          44.98         -9.236          10.55         -36.54          59.08          104.1          132.4          39.75
    0.0937              -30.48          30.48          59.81          44.98         -9.234          10.54         -36.56          59.08          104.1          132.4          39.75
    0.1249              -30.48          30.47          59.81          44.98         -9.231          10.54         -36.58          59.09          104.1          132.4          39.75
    0.1562              -30.49          30.47          59.81          44.98         -9.227          10.54         -36.61          59.09          104.0          132.3          39.75
    0.1874              -30.49          30.47          59.81          44.98         -9.224          10.54         -36.63           59.1          104.0          132.3          39.76
    0.2186              -30.49          30.46          59.81          44.98          -9.22          10.54         -36.66          59.11          104.0          132.3          39.76
    0.2499              -30.49          30.45          59.81          44.98         -9.216          10.53         -36.69          59.11          104.0          132.3          39.76
    0.2811              -30.49          30.45          59.81          44.99         -9.212          10.53         -36.72          59.12          103.9          132.2          39.76
    0.3123               -30.5          30.44          59.81          44.99         -9.207          10.53         -36.75          59.13          103.9          132.2          39.76
    0.3436               -30.5          30.44          59.82          44.99         -9.202          10.53         -36.79          59.14          103.9          132.2          39.76
    0.3748               -30.5          30.43          59.82          44.99         -9.197          10.52         -36.83          59.15          103.8          132.1          39.76
     0.406               -30.5          30.42          59.82          44.99         -9.191          10.52         -36.87          59.16          103.8          132.1          39.76
    0.4373              -30.51          30.41          59.82          44.99         -9.185          10.52         -36.91          59.17          103.7          132.1          39.77
    0.4685              -30.51           30.4          59.82           45.0         -9.178          10.51         -36.96          59.18          103.7          132.0          39.77
    0.4998              -30.51          30.39          59.82           45.0         -9.171          10.51         -37.01          59.19          103.6          132.0          39.77
     0.531              -30.52          30.38          59.82           45.0         -9.163           10.5         -37.07          59.21          103.6          131.9          39.77
    0.5622              -30.52          30.37          59.83           45.0         -9.154           10.5         -37.13          59.22          103.5          131.9          39.77
    0.5935              -30.53          30.36          59.83          45.01         -9.144          10.49          -37.2          59.24          103.5          131.8          39.78
    0.6247              -30.53          30.34          59.83          45.01         -9.134          10.49         -37.28          59.26          103.4          131.7          39.78
    0.6559              -30.54          30.33          59.83          45.01         -9.122          10.48         -37.36          59.28          103.3          131.7          39.78
    0.6872              -30.54          30.31          59.84          45.02         -9.109          10.47         -37.46           59.3          103.2          131.6          39.79
    0.7184              -30.55          30.29          59.84          45.02         -9.095          10.47         -37.56          59.32          103.1          131.5          39.79
    0.7496              -30.56          30.27          59.84          45.03         -9.079          10.46         -37.67          59.35          103.0          131.4          39.79
    0.7809              -30.57          30.25          59.85          45.03         -9.062          10.45          -37.8          59.38          102.9          131.3           39.8
    0.8121              -30.58          30.22          59.85          45.04         -9.042          10.44         -37.94          59.42          102.8          131.1           39.8
